<svg width="19" height="19" viewBox="0 0 19 19" fill="none" xmlns="http://www.w3.org/2000/svg">
<circle cx="9.5" cy="9.5" r="8.5" stroke="#C6C6C6" stroke-width="2"/>
<path fill-rule="evenodd" clip-rule="evenodd" d="M14.7697 6.23424C14.9172 6.38427 15 6.58772 15 6.79986C15 7.012 14.9172 7.21546 14.7697 7.36549L8.47842 13.7658C8.33094 13.9157 8.13095 14 7.92242 14C7.71389 14 7.5139 13.9157 7.36642 13.7658L4.22076 10.5656C4.0775 10.4147 3.99824 10.2126 4.00003 10.0029C4.00182 9.79311 4.08453 9.59245 4.23034 9.44412C4.37614 9.29579 4.57339 9.21165 4.77958 9.20983C4.98578 9.208 5.18443 9.28864 5.33275 9.43438L7.92242 12.0689L13.6578 6.23424C13.8052 6.08426 14.0052 6 14.2138 6C14.4223 6 14.6223 6.08426 14.7697 6.23424Z" fill="#C6C6C6"/>
</svg>
