<svg width="16" height="19" viewBox="0 0 16 19" fill="none" xmlns="http://www.w3.org/2000/svg">
<path fill-rule="evenodd" clip-rule="evenodd" d="M6.78571 0C6.57574 0.000117739 6.36994 0.0616112 6.19137 0.177593C6.0128 0.293576 5.8685 0.459467 5.77464 0.656687L4.95583 2.375H1.13095C0.831005 2.375 0.543343 2.50011 0.331248 2.72281C0.119154 2.94551 0 3.24756 0 3.5625C0 3.87744 0.119154 4.17949 0.331248 4.40219C0.543343 4.62489 0.831005 4.75 1.13095 4.75V16.625C1.13095 17.2549 1.36926 17.859 1.79345 18.3044C2.21764 18.7498 2.79296 19 3.39286 19H12.4405C13.0404 19 13.6157 18.7498 14.0399 18.3044C14.4641 17.859 14.7024 17.2549 14.7024 16.625V4.75C15.0023 4.75 15.29 4.62489 15.5021 4.40219C15.7142 4.17949 15.8333 3.87744 15.8333 3.5625C15.8333 3.24756 15.7142 2.94551 15.5021 2.72281C15.29 2.50011 15.0023 2.375 14.7024 2.375H10.8775L10.0587 0.656687C9.96483 0.459467 9.82054 0.293576 9.64196 0.177593C9.46339 0.0616112 9.25759 0.000117739 9.04762 0H6.78571ZM4.52381 7.125C4.52381 6.81006 4.64296 6.50801 4.85506 6.28531C5.06715 6.06261 5.35481 5.9375 5.65476 5.9375C5.95471 5.9375 6.24237 6.06261 6.45447 6.28531C6.66656 6.50801 6.78571 6.81006 6.78571 7.125V14.25C6.78571 14.5649 6.66656 14.867 6.45447 15.0897C6.24237 15.3124 5.95471 15.4375 5.65476 15.4375C5.35481 15.4375 5.06715 15.3124 4.85506 15.0897C4.64296 14.867 4.52381 14.5649 4.52381 14.25V7.125ZM10.1786 5.9375C9.87862 5.9375 9.59096 6.06261 9.37887 6.28531C9.16677 6.50801 9.04762 6.81006 9.04762 7.125V14.25C9.04762 14.5649 9.16677 14.867 9.37887 15.0897C9.59096 15.3124 9.87862 15.4375 10.1786 15.4375C10.4785 15.4375 10.7662 15.3124 10.9783 15.0897C11.1904 14.867 11.3095 14.5649 11.3095 14.25V7.125C11.3095 6.81006 11.1904 6.50801 10.9783 6.28531C10.7662 6.06261 10.4785 5.9375 10.1786 5.9375Z" fill="#C6C6C6"/>
</svg>
